<?xml version="1.0" encoding="UTF-8"?><svg id="Layer_1" xmlns="http://www.w3.org/2000/svg" viewBox="0 0 1000 243.23"><path d="M167.55,138.9c-15.26,14.64-61.97,61.04-112.12,61.04-24.91,0-55.44-10.28-55.44-49.52C0,77.24,92.81,0,153.54,0c24.29,0,34.26,11.21,34.26,24.29,0,30.83-35.5,68.83-72.88,68.83-10.28,0-17.13-3.74-17.13-8.72,0-3.43,3.74-6.23,7.47-6.23,5.61,0,7.16,7.79,20.87,7.79,23.05,0,54.81-33.63,54.81-57.3,0-12.77-6.54-21.18-23.36-21.18C104.33,7.47,26.78,84.4,26.78,147.62c0,28.96,16.19,39.86,36.75,39.86,49.21,0,88.45-37.06,102.46-50.45l1.56,1.87Z"/><path d="M269.39,138.9c-15.57,14.64-30.21,23.05-45.16,23.05-9.03,0-17.44-3.74-17.44-14.01,0-3.11,.31-7.79,1.87-11.21-16.82,18.06-30.21,27.72-40.49,27.72-5.61,0-12.15-3.11-12.15-10.28,0-13.7,19.31-24.6,19.31-40.49,0-2.8,2.18-4.36,4.67-4.36,4.36,0,12.77,4.05,12.77,9.97,0,9.97-16.19,23.98-16.19,33.63,0,1.25,.93,2.18,2.18,2.18,4.05,0,14.33-6.54,29.27-23.67,7.16-8.1,10.59-13.7,15.26-13.7,3.74,0,8.41,1.87,8.41,6.23,0,3.11-1.25,5.29-3.11,7.79-3.74,5.29-5.61,9.34-5.61,15.57,0,5.29,3.43,7.79,9.03,7.79,10.28,0,20.55-4.05,35.81-18.06l1.56,1.87Z"/><path d="M351.92,137.03l1.56,1.87c-10.59,9.65-20.87,17.13-41.73,19.31-6.54,7.16-16.19,12.77-24.91,12.77s-13.7-5.29-13.7-11.21c0-4.67,4.36-5.92,7.47-5.92,5.29,0,10.9,.62,16.82,.93,5.92-6.85,9.97-16.19,9.97-24.6,0-2.49-1.25-4.05-3.74-4.05-6.85,0-23.67,12.77-31.77,29.59-15.57,32.08-18.37,70.7-18.37,75.68,0,5.61,1.25,7.16,1.25,9.34,0,1.56-2.18,2.49-3.74,2.49-5.92,0-13.08-4.98-13.08-11.83,0-14.33,9.34-46.72,17.13-72.25,7.47-25.23,9.03-38.62,9.03-43.6,0-4.67,2.49-5.92,5.92-5.92,6.54,0,11.21,4.67,11.21,8.72,0,4.98-4.67,13.39-5.92,22.11,16.19-17.44,29.27-23.36,35.19-23.36,8.1,0,12.46,6.54,12.46,12.46,0,9.03-3.43,18.06-9.03,25.23,18.69-1.56,28.96-9.65,37.99-17.75Zm-56.68,21.18l-10.28-.31c-4.67,0-6.23,1.25-6.23,2.49,0,1.87,1.87,2.8,4.36,2.8,2.8,0,8.41-1.56,12.15-4.98Z"/><path d="M426.35,138.9c-15.57,14.64-33.95,28.03-58.55,28.03-10.59,0-21.8-3.43-21.8-15.88,0-19.31,26.16-36.44,41.11-36.44,8.1,0,12.46,4.98,12.46,11.21,0,4.98-2.18,9.03-6.54,9.03-2.49,0-5.61-2.18-5.61-5.29,0-3.43,4.36-5.29,4.36-7.79,0-.62-.31-1.25-1.87-1.25-6.54,0-25.23,15.88-25.23,30.52,0,4.36,3.74,9.65,10.9,9.65,19.62,0,35.19-10.28,49.21-23.67l1.56,1.87Z"/><path d="M515.73,138.9c-15.57,14.64-28.03,23.05-38.93,23.05-10.28,0-19-5.92-19.31-16.82-11.21,10.59-25.23,20.55-33.32,20.55s-10.28-4.05-10.28-8.72c0-17.75,29.27-45.16,50.14-45.16,12.15,0,17.44,6.54,17.44,12.46,0,3.74-2.49,6.54-5.61,9.03,.31,.31,.62,1.56,.62,2.8,0,4.98-1.56,4.98-1.56,10.28,0,4.67,3.11,8.72,8.41,8.72,7.47,0,16.82-4.67,30.83-18.06l1.56,1.87Zm-42.35-8.72c1.56-2.18,1.56-4.05,1.56-5.29,0-1.56-1.87-3.43-4.98-3.43-15.26,0-37.68,24.91-37.68,32.7,0,1.25,.93,2.18,2.49,2.18s9.65-4.05,21.8-15.88c4.36-4.36,9.97-11.21,13.39-11.21,1.25,0,2.8,.31,3.43,.93Z"/><path d="M590.47,159.14c-8.41,3.43-15.57,5.61-23.05,5.61-19.31,0-32.08-11.83-32.08-15.88,0-5.92,23.67-16.19,23.67-22.73,0-.62-.62-1.25-1.25-1.25-6.54,0-33.95,16.19-36.13,36.44-.31,3.43-1.25,7.16-4.36,7.16-2.8,0-8.72-2.18-8.72-13.08,0-49.83,42.36-119.28,67.27-119.28,5.92,0,11.52,5.29,11.52,12.15,0,19.62-33.63,56.06-59.48,82.53-.62,3.74-1.56,7.47-1.87,10.9,10.59-13.39,30.52-25.23,38.31-25.23,5.29,0,10.59,4.98,10.59,9.03,0,10.59-22.73,18.06-22.73,20.55,0,2.8,4.05,14.33,20.55,14.33,5.29,0,10.59-1.25,16.19-3.74l1.56,2.49Zm-61.04-35.5c22.42-23.98,52.01-59.79,52.01-74.43,0-1.25-.93-2.18-2.49-2.18-9.65,0-35.5,32.7-49.52,76.61Z"/><path d="M666.77,138.9c-15.57,14.64-33.01,29.59-54.81,29.59-14.33,0-26.16-5.92-26.16-18.69,0-18.06,22.11-33.63,34.88-33.63,8.72,0,11.83,4.67,11.83,9.03,0,8.72-15.57,20.87-27.72,28.03,.62,4.05,3.74,9.03,12.46,9.03,19.62,0,33.95-11.83,47.96-25.23l1.56,1.87Zm-62.6,11.21c9.34-5.61,22.42-16.51,22.42-24.29,0-1.56-1.25-3.11-3.74-3.11-7.79,0-18.69,16.19-18.69,27.41Z"/><path d="M676.11,144.82c0,18.69,6.85,30.52,19,30.52,2.49,0,3.43-.93,4.05-.93,.93,0,1.25,.62,1.25,1.25,0,1.25-4.36,3.43-8.72,3.43-22.73,0-32.08-14.01-32.08-37.68,0-40.17,31.14-101.53,59.79-101.53,6.23,0,11.52,4.98,11.52,12.15,0,23.67-33.95,61.35-54.19,81.91-.31,3.43-.62,7.79-.62,10.9Zm1.87-17.75c16.51-16.82,47.34-53.57,47.34-75.37,0-2.18-1.56-3.74-3.74-3.74-9.03-.31-36.75,43.29-43.6,79.1Z"/><path d="M797.26,138.9c-15.57,14.64-28.03,23.05-38.93,23.05-10.28,0-19-5.92-19.31-16.82-11.21,10.59-25.23,20.55-33.32,20.55s-10.28-4.05-10.28-8.72c0-17.75,29.27-45.16,50.14-45.16,12.15,0,17.44,6.54,17.44,12.46,0,3.74-2.49,6.54-5.61,9.03,.31,.31,.62,1.56,.62,2.8,0,4.98-1.56,4.98-1.56,10.28,0,4.67,3.11,8.72,8.41,8.72,7.47,0,16.82-4.67,30.83-18.06l1.56,1.87Zm-42.36-8.72c1.56-2.18,1.56-4.05,1.56-5.29,0-1.56-1.87-3.43-4.98-3.43-15.26,0-37.68,24.91-37.68,32.7,0,1.25,.93,2.18,2.49,2.18s9.65-4.05,21.8-15.88c4.36-4.36,9.97-11.21,13.39-11.21,1.25,0,2.8,.31,3.43,.93Z"/><path d="M901.9,138.9c-15.57,14.64-31.46,25.23-47.96,25.23-12.15,0-18.69-4.67-18.69-13.08,0-9.03,7.16-16.19,7.16-20.87,0-1.25-.93-2.18-1.87-2.18-3.43,0-16.82,6.23-32.39,22.73-7.16,7.47-8.41,13.7-13.08,13.7-4.05,0-9.65-3.43-9.65-8.41,0-9.65,14.01-25.54,18.06-36.13,1.25-3.74,3.43-8.41,7.79-8.41s10.28,4.36,10.28,8.72c0,6.85-12.46,21.49-13.39,25.23,18.69-16.51,31.14-26.16,41.42-26.16,5.61,0,9.97,3.43,9.97,8.72,0,7.79-6.54,13.08-6.54,21.49,0,4.98,3.43,8.1,9.34,8.1,10.59,0,23.98-7.16,37.99-20.55l1.56,1.87Z"/><path d="M953.6,132.05c0,14.95,4.67,20.55,10.59,20.55,2.49,0,4.36-.93,6.54-2.49,1.25-.93,1.87-1.56,2.49-1.56s.93,.31,.93,.93-.62,1.87-2.18,3.74c-2.49,3.11-6.85,7.16-15.26,7.16s-16.51-4.36-17.44-18.69c-16.82,15.88-30.21,24.29-38.31,24.29-5.29,0-10.9-3.43-10.9-9.65,0-17.44,24.6-42.04,43.6-42.04,1.87,0,4.67,.62,6.23,1.56,5.92-40.49,30.52-80.66,49.83-80.66,5.61,0,10.28,5.61,10.28,11.21,0,20.87-28.03,58.24-46.09,80.04-.31,2.18-.31,3.74-.31,5.61Zm-14.33-10.59c-1.56-.93-2.8-.93-4.05-.93-9.34,0-27.41,20.55-27.41,33.95,0,.93,.62,1.56,1.56,1.56,4.67,0,13.39-4.05,29.27-19.31,0-4.67,0-9.97,.62-15.26Zm14.95-1.25c16.51-20.55,40.49-58.24,40.49-72.25,0-1.56-.93-2.8-2.18-2.8-9.65,0-32.08,41.73-38.31,75.06Z"/></svg>