<svg xmlns="http://www.w3.org/2000/svg" viewBox="0 0 122.88 122.88"><path d="M61.44 0v.02C44.46.02 29.1 6.89 18 18 6.89 29.1.02 44.46.02 61.44c0 16.98 6.87 32.34 17.98 43.44 11.11 11.11 26.47 17.98 43.44 17.98v.02-.02c16.98 0 32.34-6.87 43.44-17.98 11.11-11.11 17.98-26.47 17.98-43.44 0-16.98-6.87-32.34-17.98-43.44S78.42.02 61.44.02V0zM51.18 42.48c-1.87-2-1.76-5.14.24-7.01a4.953 4.953 0 0 1 6.86.1l21.84 22.52-3.55 3.46 3.57-3.46a4.974 4.974 0 0 1-.11 7.03c-.06.05-.11.11-.17.16L58.29 87.34a4.958 4.958 0 0 1-7.01.06 4.968 4.968 0 0 1-.1-6.98l18.47-18.89-18.47-19.05z" fill="#2b4162"/></svg>